<svg width="16" height="16" viewBox="0 0 16 16" fill="none" xmlns="http://www.w3.org/2000/svg">
  <!-- question mark icon in purple -->
  <path d="M8 1C4.13 1 1 4.13 1 8s3.13 7 7 7 7-3.13 7-7-3.13-7-7-7zm0 13c-3.31 0-6-2.69-6-6s2.69-6 6-6 6 2.69 6 6-2.69 6-6 6z" fill="#7B1FA2"/>
  <path d="M8 11.5c-.55 0-1 .45-1 1s.45 1 1 1 1-.45 1-1-.45-1-1-1z" fill="#7B1FA2"/>
  <path d="M8 4C6.34 4 5 5.34 5 7h1.5c0-.83.67-1.5 1.5-1.5s1.5.67 1.5 1.5c0 .75-.36 1.01-.94 1.35-.68.4-1.31.95-1.31 2.15h1.5c0-.62.17-.87.69-1.18C10.12 8.87 11 8.28 11 7c0-1.66-1.34-3-3-3z" fill="#7B1FA2"/>
</svg>

