<svg width="16" height="16" viewBox="0 0 16 16" fill="none" xmlns="http://www.w3.org/2000/svg">
  <!-- exact pen path from svgrepo scaled 24->16, stroked 1px -->
  <path d="M10.3332 3.66663 L12.2188 5.55225 M2 13.9998 L2.03163 13.77833 C2.14357 12.9948 2.19955 12.603 2.32686 12.2372 C2.43983 11.9126 2.59416 11.6039 2.78604 11.3189 C3.00227 10.9975 3.28213 10.7177 3.84183 10.158 L11.6071 2.39264 C12.1279 1.87194 12.9721 1.87194 13.4928 2.39264 C14.0135 2.91334 14.0135 3.75756 13.4928 4.27826 L5.58496 12.1861 C5.07719 12.6939 4.82331 12.9477 4.53413 13.1496 C4.27745 13.3288 4.00062 13.4773 3.70932 13.5919 C3.38114 13.7211 3.02917 13.7921 2.32529 13.9341 L2 13.9998 Z" stroke="#d48f2fff" stroke-width="1" stroke-linecap="round" stroke-linejoin="round" fill="none"/>
</svg>
